<?xml version="1.0" encoding="UTF-8"?>
<svg id="Layer_2" data-name="Layer 2" xmlns="http://www.w3.org/2000/svg" viewBox="0 0 3516.25 589.36">
  <defs>
    <style>
      .cls-1 {
        fill: #ffc120;
      }
    </style>
  </defs>
  <g id="Camada_1" data-name="Camada 1">
    <path class="cls-1" d="M2363.07,479.11c-79.25-.7-155.81-1.38-228.85-2.02-32.73-95.58-63.63-185.82-94.96-277.28,39.11-12.58,55.3-50.28,82.24-76.48,33.38-32.47,64.21-67.56,96.71-102.13,11.46,4.31,21.09,7.94,31.89,12.01,10.91-10.56,21.35-4.8,33.99.31,47.48,19.22,95.86,36.19,143.56,54.87,6.68,2.61,11.46,10.06,17.12,15.27-1.04,1.4-2.07,2.79-3.11,4.19,14.41,3.78,28.81,7.56,45.38,11.91-1.73,13.38-1.95,25.07-4.86,36.05-19.24,72.6-39.14,145.02-58.49,217.59-1.24,4.67-1.54,11.39.93,14.92,9.67,13.82,20.2,27.1,31.22,39.89,11.32,13.14,23.5,25.54,35.45,38.13,11.98,12.63,24.14,25.09,36.92,38.35-8.45,13.4-16.94,26.86-25.43,40.33,1.53,1.33,3.07,2.66,4.6,3.98-20.48,12.82-40.96,25.64-64.48,40.36-27.82-38.42-54.26-74.95-79.83-110.25ZM2255.12,153.08c-11.2,15.2-20.8,29.92-32.16,43.12-9.32,10.82-9.41,21.94-5.98,34.26,12.97,46.59,25.91,93.18,39.07,139.71,2.31,8.16,5.61,16.04,8.57,24.39,13.7-2.82,25.36-5.23,39.38-8.12-12.34-18.88-23.92-36.62-37.68-57.67,24.28-14.08,46.37-26.89,67.85-39.35,6.34.87,11.82,1.62,18.26,2.5,4.25-24.58,8.27-47.87,12.19-70.59-37.04-23.09-72.54-45.22-109.51-68.26Z"/>
    <path class="cls-1" d="M404.67,154.57c22.16,5.29,24.71,8.96,20.97,28.45-13.64,70.94-27.21,141.89-40.89,212.83-.98,5.1-2.6,10.08-5.19,19.92-28.53,6.37-58.84,12.61-88.86,20.03-19.2,4.74-37.83,11.75-56.96,16.8-40.86,10.79-82.35,10.57-123.66,7.58C75.09,313.89,17.19,175.16,0,22.2c13.77-1.47,23.89-4.3,33.6-3.29,46.33,4.79,91.41-1.55,136.14-12.81,9.54-2.4,19.29-3.94,30.02-6.09,32.35,12.57,188.68,129.85,204.9,154.57ZM248.21,281.15c1.6.04,3.21.09,4.81.13,10.12-23.67,20.23-47.33,31.16-72.91-19.47-16.26-37.87-31.64-56.27-47.01-1.51.91-3.02,1.83-4.53,2.74,8.27,39.01,16.55,78.03,24.82,117.04Z"/>
    <path class="cls-1" d="M1532.79,220.46c26.17,35.5,52.74,71.55,81.72,110.86,3.53-15.95,6.59-28.65,9.11-41.45,4.31-21.81,7.8-43.8,12.56-65.51,3.48-15.88,8.54-16.29,23.79-11.11,21.32,7.24,43.58,11.69,65.44,17.33,9.57,2.47,19.15,4.94,29.83,7.69-3.54,16.7-6.57,31-9.26,43.71-3.64.69-7.64,1.16-7.63,1.5.15,4.82.85,9.62,1.61,16.06-.37.13-2.69.92-4.92,1.68,6.15,27.41-4.48,52.51-11.57,77.77-7.6,27.08-17.62,53.49-25.95,78.29-8.84,2.15-16.82,4.1-24.79,6.04.23.79.46,1.57.69,2.36-19.34-1.17-38.67-2.35-52.36-3.18-8.91-16.96-14.35-29.33-21.53-40.6-18.4-28.89-37.53-57.31-56.46-85.86-2.43-3.67-5.42-6.98-10.65-9.24,10.94,44.74,21.89,89.47,32.82,134.18-29.96,18.63-52.04,23.66-94.49,21.35-2.29-2.77-4.88-5.9-7.22-8.73-5.97.51-11.39.98-20.31,1.75-20.82-73.99-41.55-147.67-63.05-224.06,50.62-11.95,97.37-37.37,152.61-30.82Z"/>
    <path class="cls-1" d="M1031.54,140.59c54.12-11.53,105.35-22.69,156.7-33.22,12.89-2.65,26.19-4.35,39.3-4.34,4.77,0,11.67,5.24,13.9,9.87,5.77,12,9.72,24.91,13.97,37.61,15.16,45.29,30.15,90.64,45.81,137.8-2.89,2.92-6.82,6.9-10.94,11.06.24,4.91.48,10,.73,15.09-1.15-.7-2.29-1.4-3.44-2.1-8.01,9.05-17.51,17.19-23.77,27.32-21.12,34.21-41.02,69.16-61.56,103.73-3.8,6.4-8.4,12.33-12.63,18.47-.63-1.83-1.26-3.65-1.89-5.48-34.11,4.22-68.48,7.02-102.26,13.08-33.45,6-66.4,8.5-97.68,1.86-24.06-29.75-54.18-48.69-86.11-63.3-16.39-7.5-22.87-15.81-21.63-27.19,56.89-79.83,111.82-155.46,151.52-240.25ZM1137.67,200.16c-21.91,6.38-59.64,72.79-73.4,126.49,7.3,6.53,15.27,13.64,24.67,22.05,22.84-27.73,44.48-53.99,65.12-79.04-5.79-24.54-10.96-46.46-16.4-69.5Z"/>
    <path class="cls-1" d="M3085.04,253.98c14.59-44.64,27.49-84.1,41.32-126.4,11.55-1,22.38-1.94,33.85-2.94-6.87-4.14-13.8-8.32-21.22-12.78,20.35-17.59,60.36-10.61,102.27,18.11-3.4,17.92-6.76,37.64-10.92,57.2-16.37,76.98-32.98,153.9-49.55,230.84-.6,2.77-1.67,5.45-3.2,10.36-25.29,1.12-50.84,2.26-74.25,3.3-8.09-5.93-14.8-10.85-21.51-15.77-.71.6-1.42,1.2-2.14,1.79-18.82-36.59-37.63-73.18-56.45-109.77-1.48.18-2.96.35-4.44.53.03,44.58.05,89.16.08,131.96-14.06,4.63-26.75,8.81-39.44,12.99.32,1.79.64,3.57.96,5.36-22.15-.21-44.3-.41-69.33-.65-2.66-118.63-5.21-232.61-7.83-349.94,36.6-1.51,70.63-2.91,109.87-4.52,21.97,45.93,45.79,95.73,71.91,150.33Z"/>
    <path class="cls-1" d="M1922.86,469.83c-17.28.99-38.18,2.19-63.92,3.66,5.52-29.08,10.42-54.89,15.57-82.02-14.47-5.71-28.4-11.2-43.7-17.24-10.12,30.17-19.65,58.56-29.44,87.76-25.52,4.72-51.07,7.69-78.45-2.92,3.8-13.82,6.92-26.73,10.91-39.37,22.01-69.72,44.36-139.34,66.16-209.13,1.78-5.69.31-12.39.36-20.27,13.43-19.22,34.77-19.59,60.31-16.45,9.54,9.34,21.61,20.76,33.23,32.62,21.84,22.28,43.73,44.53,64.98,67.36,12.37,13.3,23.9,27.44,35.02,41.81,3.02,3.91,5.19,10.39,4.35,15.08-7.89,44.14-16.62,88.13-24.82,132.22-1.21,6.53-.92,13.34-1.58,24.12-15.64-5.5-30.54-10.74-48.99-17.23ZM1896.18,297.11c-9.6-9.88-18.63-19.17-29.65-30.51-4.12,14.53-7.38,26.01-10.45,36.87,13.92,4.27,25.33,7.77,37.7,11.57.87-6.46,1.65-12.26,2.41-17.92Z"/>
    <path class="cls-1" d="M956.79,149.49c1.37,18.85,2.57,35.37,4.09,56.41-43.98,65.9-90.55,135.69-136.44,204.45-52.36,3.93-102.23,9.26-152.19,10.44-14.86.35-29.99-10.95-49.05-18.51,36.37-121.14,71.41-237.88,106.65-355.25,32.35-.02,60.53,6.31,86.25,22.32,29.2,18.18,57.96,37.11,87.65,54.45,16.9,9.87,35.29,17.21,53.05,25.71ZM745.12,310.6c2.82,1.49,5.63,2.99,8.45,4.48,24.49-38.62,48.98-77.24,74.22-117.05-12.84-10.03-24.32-19.01-37.12-29.01-15.86,49.3-30.71,95.44-45.55,141.57Z"/>
    <path class="cls-1" d="M2717.83,459.1c-37.82,16.54-76.53,33.47-116.7,51.03-4.35-7.41-8.39-14.29-12.43-21.17-.69.84-1.39,1.67-2.08,2.51-10.66-8.31-22.09-15.8-31.84-25.07-28.73-27.34-56.82-55.35-85.07-83.18-6.09-6-11.82-12.38-17.36-18.22,29.3-39.96,28.53-87.09,40.23-130.27,8.83-32.57,13.55-66.25,20.23-99.42.78-3.87,2.38-7.58,3.32-10.47,31.85-10.73,56.64,3.08,79.29,20.79,5.51,4.31,9.04,16.54,7.38,23.73-8.87,38.57-19.66,76.71-29.82,114.98-1.17,4.39-2.59,8.71-4.11,13.76,21.84,16.31,43.03,32.13,68.65,51.27,5.25-86.42,10.21-168.09,15.02-247.29,27.07-17.07,49.58-5.99,71.55,1.62,4.66,1.62,9.09,12.02,8.91,18.24-2.02,71.12-4.63,142.24-7.77,213.32-1.82,41.23-4.88,82.4-7.39,123.83Z"/>
    <path class="cls-1" d="M3212.12,427.51c21.62-102.94,42.43-202.04,63.36-301.67,16.44,1,31.56,4.03,46.09,2.24,16.85-2.07,25.66,8.27,37.74,15.85,34.47,21.63,69.92,41.82,105.89,60.86,10.2,5.4,23.52,4.92,36.23,7.29,3.73,6.14,7.62,12.54,9.84,16.19,1.67,78.73,3.28,154.61,4.98,234.69-28.77.47-53.25-.12-77.57,1.53-24.8,1.69-49.81,9.18-75.12-10.12,1.2-19.81,2.56-42.24,4.05-66.72-16.85-3.34-31.38-6.22-48.46-9.61-4.92,23.27-9.44,44.67-14.75,69.81-29.39-6.48-59.18-13.04-92.28-20.34ZM3335.27,294.32c32.51,10.77,47.38-1.84,49.73-47.34-10.75-6.36-22.28-13.18-36.32-21.49-5.01,25.72-9.25,47.47-13.41,68.83ZM3463.41,445.97l.21-1.25-1.33.43,1.12.82Z"/>
    <path class="cls-1" d="M632.27,190.08c-28.73,1.37-52.7,2.52-77.1,3.69-1.33,11.65-2.16,18.91-3.33,29.06,24.32-1.51,46.54-2.9,72.51-4.51-7.21,28-13.76,53.42-20.18,78.37-20.83,1.68-39.74,3.2-59.5,4.79-.62,10.28-1.1,18.14-1.73,28.49,26.18-5.88,51.22-11.5,82.81-18.59-4.79,21.78-6.88,39.17-12.65,55.23-5.44,15.13-14.78,28.86-22.86,44.07-29.66,6.78-61.17,18.05-93.27,20.1-28.17,1.8-58-4.58-80.5-25.44-4.25-3.94-5.26-14.01-4.15-20.65,3.86-22.99,9.6-45.66,14.11-68.56,12.07-61.24,23.45-122.62,35.94-183.77,7.17-35.11,20.64-44.33,56.09-39.33,43.84,6.18,87.56,13.25,131.31,20.06,2.16.34,4.14,1.8,9.65,4.31-9.42,25.24-18.76,50.25-27.14,72.68Z"/>
    <path class="cls-1" d="M2871.46,420.6c-6.91,1-13.13,1.9-20.2,2.93-3.61,4.63-7.48,9.6-12.5,16.04-23.7-.17-48.28-.35-76.58-.56,1.25-82.69,2.45-161.6,3.65-241.54,33.51.13,66.07.26,102.16.4,1.76,8.13,5.47,17.38,5.5,26.63.17,61.79-.43,123.58-.85,185.37-.02,3.36-.72,6.72-1.18,10.72Z"/>
  </g>
</svg>