<?xml version="1.0" encoding="UTF-8"?>
<svg id="Layer_2" data-name="Layer 2" xmlns="http://www.w3.org/2000/svg" viewBox="0 0 1266.73 1328.49">
  <defs>
    <style>
      .cls-1 {
        fill: #ffc120;
      }

      .cls-2 {
        fill: #fff;
      }

      .cls-3 {
        fill: #302f2f;
      }
    </style>
  </defs>
  <g id="Camada_1" data-name="Camada 1">
    <g>
      <g>
        <path class="cls-1" d="M57.26,1265.9l25.99-130.41-60.43-236.75,13.59-141.01-10.29-88.26-12.07-28.01-2.13-75.39L0,508.53l3.97-41.24,49.89-30.1,30.02,64.65.5,64.49,41.67,124.85,18.24,5.79,7.95-82.48-4.15-82.3,7.74-66.38,2.22-120.62,44.83-33.27,34.64,16.76,1.3,139.76-6.79,70.5,17.44,41.96-7.31,75.82,10.26,5.02,20.35-71.88-4.57-50.12,19.05-100.2,6.02-62.52,6.15-63.85,28.91-21.38,48.76,23.49-11.66,121.05,2.37,64.67,4.63,29.98-29.85,128.7,8.31,16.91,7.83-3.27,19.37-47.81,24.2-111.79,17.9-88.23,6.28-65.18,51.32-3.11,16.3,95.55-12.18,126.37-22.95,126.68,5.52,54.24-9.87,102.43,8.3,53.16,16.19,27.07,55.9-22.81,78.02-85.12,49.84-43.52s37.37,2.27,42.57,4.1c5.19,1.83,27.46,35.53,27.46,35.53l-67.57,88.14-16.51,31.97-55.04,41.69-29.58,56.22-77.91,42.17-60.87,46.5-55.85,36.24-44.41,1.09-9.87,102.43,5.81,51.15-207.35-35.66-56.48-26.92Z"/>
        <polygon class="cls-2" points="196.59 836.98 300.67 842.22 377.33 908.72 406.65 964.68 291.55 961.24 205.7 917.89 141.64 840.41 196.59 836.98"/>
        <polygon class="cls-3" points="267.68 843.83 231.28 889.58 261.85 934.69 314.95 919.6 317.23 883.99 296.77 851.86 267.68 843.83"/>
        <polygon class="cls-2" points="263.37 864.77 252.44 876.88 261.82 888.98 277.9 885.08 278.5 875.59 272.22 866.98 263.37 864.77"/>
      </g>
      <g>
        <path class="cls-1" d="M1055.89,967l-41.67-74.79-36.84-41.03-27.85-25.54-69.19-39.9-44.63-35.49-16.59-14.14s-65.09-37.63-68.34-40.29c-3.24-2.66-48.84-44.9-48.84-44.9l-73.29-42.18-35.19-30.47-9.19-20.54-33.35-14.86s-3.71-40.44,3.22-45.6c6.94-5.16,18.73-6.33,20.54-9.19,1.8-2.86,45.03,6.55,45.03,6.55l47.35,20.92,30.62,29.43,52.42,29.95,21.23,3.85-2.66-35.78.32-26.84-22.85-44.2s.09-2.09-2.21-7.23c-2.3-5.13-29.09-65.03-29.09-65.03l-53.02-84.1s-22.02-53.82-25.08-60.66c-3.06-6.85-31.54-56.74-31.54-56.74l-10.83-31.1,16.1-32.87,26.25-5.58,37.78,38.55,28.84,41.52s6.98,13.31,9.66,19.3c2.68,5.99,9.01,24.72,11.86,26.53,2.86,1.8,18.69,14.23,22.52,22.79,3.83,8.56,26.27,42.67,32.49,54.27,6.21,11.6,16.23,22.52,16.23,22.52l7.7-3.44s-1.85-15.6-8.42-18.82c-6.57-3.22-22.34-26.98-22.63-29.93-.29-2.95-10.09-38.62-11.23-41.18-1.15-2.57-21.03-37.83-21.03-37.83l-14.02-50.21-34.59-97.48-11.1-24.81,17.45-25.26,41.86-7.43,31.03,39.52,16.13,49.26s12.37,29.38,16.08,35.94c3.7,6.56,25.95,35.63,25.95,35.63,0,0,1.64,10.56,6.89,15.4,5.25,4.84,23.35,52.2,23.35,52.2l23.89,39.63,13.44,9.39-6.26-30.06-.72-22.27-11.1-24.81.63-53.68-13.62-44.22-3.89-36.25-9.52-41.95-4.98-11.12,26.48-30.33,34.18,5.25,17.76,25.94s17.49,71.24,20.08,79.33c2.59,8.08,6.17,32.15,7.32,34.72s23.55,57.24,23.55,57.24c0,0,1.19,21.03,1.48,23.98.29,2.95,4.75,35.87,4.75,35.87l5.18,16.17,10.54,28.15,11.82,8.06,14.05-14.5-1.55-51.68.68-35.22-1.3-28.17-7.2-27.58-4.28-37.11,8.04-21.05,5.2-13.62,37.87-2.56,9.57,21.39,16.08,35.94,3.65,51.77s2.99,18.17,4.52,21.59c1.53,3.42,9.09,61.65,9.09,61.65,0,0-6.53,15.24-6.24,18.19.29,2.95-.68,35.22-.68,35.22l6.55,33.01,22.47,82.37,1.78,26.93,23.82,50.96,7.27,94.3,2.74,72.71,5.4,30.44s16.1,45.17,18.66,44.02c2.57-1.15,72.39,102.14,72.39,102.14l3.17,13.98,4.41,14.46s-111.19,68.22-123.37,68.53c-12.18.31-49.76,5.83-52.33,6.98-2.57,1.15-35.13-2.79-35.13-2.79Z"/>
        <g>
          <polygon class="cls-2" points="854.33 561.31 939.53 503.07 1039.84 509.55 1096.5 536.1 1003.68 602.38 910.01 619.65 813.06 596.96 854.33 561.31"/>
          <polygon class="cls-3" points="928.82 528.22 915 570.49 947.69 595.84 980.87 571.81 973.48 545.31 951.11 526.92 928.82 528.22"/>
          <polygon class="cls-2" points="945.77 539.72 941.59 551.16 950.81 557.81 960.44 551.17 958.46 544.08 952.16 539.25 945.77 539.72"/>
        </g>
      </g>
    </g>
  </g>
</svg>