<?xml version="1.0" encoding="UTF-8"?>
<svg id="Layer_2" data-name="Layer 2" xmlns="http://www.w3.org/2000/svg" viewBox="0 0 1758.42 1111.13">
  <defs>
    <style>
      .cls-1 {
        fill: #1d213c;
      }

      .cls-2 {
        fill: #ffc120;
      }

      .cls-3 {
        fill: #fff;
      }

      .cls-4 {
        fill: #302f2f;
      }
    </style>
  </defs>
  <g id="Camada_1" data-name="Camada 1">
    <g>
      <g>
        <path class="cls-2" d="M382.77,1106.71l-21.82-78.92-98.79-113.47-31.57-81.31-30.1-45.69-14.39-12.07-22.05-40.87-22.48-28.35-9.23-23.78,19.1-30.37,34.41,27.24,18.13,35.33,57.49,57.12,11.63-1.87-18.47-47.56-25.07-44.11-14.13-38.65-32.18-66.95,15.44-30.71,23.69-.37,39.41,76.5,15.79,40.66,21.21,18.25,16.98,43.72,7.03-.08-8.71-45.17-16.39-26.3-17.27-60.38-14-36.05-14.3-36.82,9.98-19.76,33.32-.58,27.1,69.8,19.21,34.91,10.85,15.21,19.22,79.05,9.25,7,3.4-3.97-2.58-31.66-17.65-68.18-14.59-53.48-14.59-37.59,27.36-15.92,35.42,48.04,28.3,72.87,22.46,76.02,18.05,28.3,22.93,59.06,19.29,26.94,16.4,10.4,24.43-28.02,19.34-68.42,15.36-37.73s21.18-9.1,24.55-9.53c3.36-.43,24.94,11.94,24.94,11.94l-12.75,67.18-.22,22.16-18.72,38.17-.7,39.11-31.17,44.76-20.6,42.43-20.68,35.4-24.12,12.9,22.93,59.06,17.36,26.52-123.91,37.8-38.52.83Z"/>
        <polygon class="cls-3" points="340.63 832.24 399.32 806.31 459.89 821.66 491.51 844.31 427.26 874.29 368.04 874.22 311.36 849.35 340.63 832.24"/>
        <polygon class="cls-4" points="381.62 816.33 374.27 851.57 403.57 867.91 428.6 844.91 419.99 824.7 399.84 812.69 381.62 816.33"/>
        <polygon class="cls-3" points="385.05 829.04 382.39 838.72 390.9 842.78 398.66 836.18 396.37 830.8 390.53 827.8 385.05 829.04"/>
      </g>
      <g>
        <path class="cls-2" d="M1272.24,643.77l-15.74-50.31-17.06-29.35-13.59-18.89-36.71-32.73-22.45-26.99-8.23-10.61s-34.52-30.84-36.15-32.85c-1.62-2.01-23.81-33.19-23.81-33.19l-38.89-34.61-17.4-22.78-2.96-13.53-18.24-13.14s2.83-24.84,7.66-27.08c4.83-2.24,12.09-1.47,13.53-2.96,1.44-1.5,26.33,9.6,26.33,9.6l25.92,18.55,14.77,21.58,27.84,24.63,12.32,4.98,2.88-21.9,3.56-16.14-8.23-29.51s.32-1.25-.42-4.63c-.74-3.38-9.38-42.85-9.38-42.85l-21.42-57.35s-6.53-35.2-7.51-39.71c-.99-4.51-11.9-38.16-11.9-38.16l-2.63-20.1,13.83-17.8,16.53-.07,17.94,27.98,12.18,28.65s2.54,8.9,3.4,12.84c.86,3.95,2.33,16.03,3.83,17.48s9.48,10.92,10.72,16.56c1.23,5.64,10.49,29.02,12.78,36.79,2.29,7.77,6.96,15.61,6.96,15.61l5.07-1.11s.84-9.64-2.72-12.4c-3.56-2.77-10.08-19.06-9.89-20.88s-1.24-24.54-1.61-26.24c-.37-1.69-7.93-25.44-7.93-25.44l-2.15-32.02-8.63-63.1-3.58-16.35,13.69-13.04,26.17.77,13.75,27.71,3.55,31.72s3.77,19.26,5.19,23.68c1.41,4.42,11.18,24.73,11.18,24.73,0,0-.33,6.57,2.22,10.15,2.56,3.58,7.53,34.39,7.53,34.39l9.43,26.89,6.93,7.35v-18.91s2.35-13.51,2.35-13.51l-3.58-16.35,7.11-32.28-2.67-28.37,2.2-22.34-.48-26.48-1.61-7.33,19.77-14.96,19.95,7.45,7.46,17.86s1.61,45.14,2.16,50.34c.55,5.2-.31,20.16.06,21.85s7.02,37.46,7.02,37.46c0,0-1.92,12.83-2.11,14.64-.19,1.81-1.63,22.22-1.63,22.22l1.09,10.4,2.82,18.29,6.12,6.34,10.29-6.98,5.54-31.35,4.82-21.14,2.74-17.14-.88-17.53,2.07-22.91,7.49-11.68,4.84-7.56,23.15,3.2,3.09,14.1,5.19,23.68-4.29,31.66s-.47,11.33.02,13.58c.49,2.26-2.25,38.31-2.25,38.31,0,0-5.85,8.37-6.04,10.19-.19,1.81-4.82,21.14-4.82,21.14l-.19,20.72,3.22,52.47-2.3,16.46,7.97,33.7-7.44,57.76-7.46,44.17-.56,19.03s4.04,29.25,5.73,28.88c1.69-.37,30.83,70.65,30.83,70.65l.16,8.83.85,9.27s-75.58,27.19-82.97,25.85c-7.38-1.34-30.73-2.72-32.42-2.35-1.69.37-20.83-6.09-20.83-6.09Z"/>
        <g>
          <polygon class="cls-3" points="1201.59 373.93 1260.25 349.5 1319.91 365.99 1350.74 389.09 1286.48 417.41 1227.84 416.08 1172.24 390.25 1201.59 373.93"/>
          <polygon class="cls-4" points="1250.64 363.32 1237.02 387.07 1253.54 406.45 1276.56 396.12 1275.42 379.22 1264.25 365.34 1250.64 363.32"/>
          <polygon class="cls-3" points="1259.42 372.38 1255.47 378.75 1260.19 383.92 1266.83 381.12 1266.53 376.6 1263.33 372.9 1259.42 372.38"/>
        </g>
      </g>
      <path class="cls-2" d="M657.31,754.34c2.75-2.98,5.03-5.46,7.72-8.38-.29-3.66-.61-7.55-1.01-12.6.67-2.23,1.38-5.85,2.84-9.15,1.46-3.29,3.19-6.68,5.62-9.27,8.2-8.72,16.91-16.83,26.67-23.95,11.36-8.29,21.76-17.88,32.87-26.53,8.38-6.53,15.56-14.85,26.42-17.89,2.15-.6,3.79-2.99,5.66-4.55.97-.11,1.9-.37,2.79-.28,10.94,1.1,21.87,2.31,32.81,3.34,2.73.26,5.59.36,8.25-.16,7.63-1.49,15.11-.9,22.8-.06,9.45,1.03,19.09.12,28.58.84,11.88.9,23.7,2.55,35.53,3.97,5.61.67,10.28,3.54,14.49,7.27,5.61-2.05,10.64-6.23,16.86-2.75,4.14-2.32,7.74-6.43,13.6-4.32,26.75,30.34,53.66,60.88,80.94,91.82.66,3.04,1.42,6.51,2.31,10.56-4.12.28-7.71.53-11.97.83,1.12,2.06,2.03,3.72,3.08,5.66-3.41,1.5-6.43,2.82-9.09,3.99-6.12,8-9.92,16.25-9.75,26.23.06,3.15-2.01,6.36-3.2,9.51-1.84,4.87-3.98,9.64-5.61,14.57-3.46,10.46-6.43,21.07-10.03,31.47-4.91,14.16-10.33,28.14-15.33,42.28-2.14,6.05-3.81,12.27-5.6,18.44-2.47,8.52-4.89,17.04-7.22,25.6-.47,1.72-.42,3.58-.63,5.61,8.58,8.9,17.46,17.09,28.05,23.64,7.99,4.94,14.74,11.85,22.31,17.54,6.16,4.64,11.28,10.13,16.19,16.03,3.87,4.66,9.15,7.84,14.66,10.7,4.52,2.35,9.06,5.53,12.22,9.45,5.75,7.12,12.67,12.23,21.3,16.13,1.69-.46,3.7-1,5.65-1.53q1.67,1.18,1.07,10.17c-8.08,7.69-15.32,16.93-25.68,22.87-2.86,1.64-5.17,4.32-7.55,6.7-7.38,7.4-14.8,14.67-24.3,19.49-2.38,1.21-4.08,3.7-6.25,5.41-3.03,2.4-6.21,4.61-10.29,7.61-2.39,2.73-5.6,6.39-8.86,10.11-5.38-.06-10.53,1.5-15.94-1.59,1.06-2.67,2.04-5.14,2.91-7.34-.25-.66-.28-1.01-.47-1.21-10.01-10.8-19.76-21.85-30.12-32.3-10.15-10.24-21.03-19.75-31.37-29.81-3.94-3.83-7.22-8.32-10.89-12.43-1.19-1.33-2.68-2.39-3.56-3.16-11.24,5.5-22.05,10.44-32.51,16.03-9.4,5.02-18.88,9.88-28.02,15.5-10.05,6.18-21.01,11.66-32.81,14.04-9.41,1.89-18.33,5-26.79,9.15-12.72,6.24-26.06,6.66-39.58,5.52-4.06-.34-7.94-2.87-11.33-4.17-3.96-6.96-6.09-13.46-7.54-20.51-1.89-9.21-5.37-18.09-8.15-27.12-5.12-16.63-10.19-33.27-15.35-49.89-.97-3.13-2.24-6.17-3.88-10.65.65-7.74-.78-16.72-3.25-25.65-1.05-3.78-.82-7.9-1.57-11.79-1.42-7.45-3.24-14.83-4.67-22.28-.74-3.87-1.42-7.83-1.43-11.75-.05-16.25-2.03-32.27-5.26-48.17-.36-1.79-.46-3.67-.4-5.5.28-8.64-.61-17.12-3.14-25.4-.18-.58-.54-1.27-.38-1.77,3.3-10.53-3.33-19.39-5.07-29.04-1.57-8.67-4.8-17.03-7.03-25.6-.83-3.18-.92-6.56-1.31-9.55ZM906.37,732.45c-4.26-.63-8.13-1.29-12.02-1.75-2.13-.25-4.34.05-6.45-.27-14.55-2.17-29.15-3.66-43.88-3.64-6.16,0-12.32-.02-18.47-.11-2.14-.03-4.28-.26-6.41-.47-4.25-.42-8.51-.86-12.76-1.34-4.22-.47-8.44-.98-12.7-1.48-14.26,12.37-29.93,22.74-42.99,36.27-3.55,3.68-6.12,7.57-6.19,12.78-.08,5.85-.41,11.72-.07,17.54.35,6.08.29,12.52,2.34,18.08,3.5,9.49,2.53,20.15,8.17,29.02.87,1.36.26,3.62.51,5.44,1,7.24,1.71,14.54,3.21,21.67,1.5,7.16,3.94,14.12,5.75,21.22,4.59,18.04,9.02,36.12,13.61,54.16.44,1.72,1.57,3.25,2.69,5.49,5.8-2.86,11.46-5.25,16.7-8.34,5.08-3,12.16-2.66,15.33-8.39-.14-1.22,0-2.01-.32-2.4-5.29-6.34-10.65-12.63-15.92-18.86.42-2.03.77-3.78,1.03-5.05-1.33-2.54-2.42-4.63-3.41-6.53,2.61-4.77,5.62-7.86,10.9-8.18,1.21-.07,2.35-1.46,3.56-2.27-1.75-2.3-3.15-4.15-4.4-5.79,2.49-4.98,9.47-4.18,9.93-10.52,4.18.56,7.64,1.03,11.31,1.53.25-3.51.47-6.5.73-10.01,7.97-2.62,15.73-5.17,23.89-7.85,3.61,3.15,7.21,6.31,10.84,9.48,1.16-.88,2.24-1.27,2.53-1.98,16.5-41.48,29.64-84.09,43-127.45Z"/>
      <path class="cls-2" d="M791.04,473.73c.29-.56.62-.91.65-1.28.37-6.57.47-13.16,1.1-19.7.58-6.1,1.45-12.21,2.71-18.2.7-3.29.63-6.27-.8-9.99,3.43-2.93,7.05-6.01,10.96-9.35,6.59-1.65,13.64-3.16,19.79-7.26,1.74-1.16,3.83-2.11,5.87-2.42,6.55-1.02,12.68-3.33,19.16-5.96.82,1.24,1.58,2.39,2.53,3.84,2.09-.04,4.4-.09,6.71-.13,3.57,3.77,3.33,8.01,1.8,12.04-1.1,2.91-1.48,5.71-1.41,8.72.21,8.77.58,17.54.43,26.3-.11,6.23-.13,12.48-1.4,18.68-1.42,6.94-.25,13.97-.16,22.11.15-.25-.39.64-1.04,1.71,1.98,1.85,2.76,3.98,1.87,6.83-.62,1.97-.65,4.19-.63,6.3.06,7.7.45,15.4.34,23.1-.12,8.63.8,17.02,4.48,24.89-1.39,3.96-2.72,7.76-4.19,11.95-1.06.33-2.43.75-3.79,1.17-.56,1.12-1.11,2.21-1.85,3.69-2.03-.98-3.86-1.85-6.01-2.89-1.02.83-2.11,1.71-3.6,2.93-6.07-2.12-12.14-1.39-17.54,2.88-1.2-.36-2.21-.91-3.22-.93-9-.2-13.38-6.46-17.43-13.16-1.2-1.99-2.02-4.28-3.53-5.98-6.49-7.32-13.03-14.61-19.82-21.66-9.1-9.44-16.49-19.9-21.94-31.91-3.77-8.3-8.65-16.09-13.03-24.11-.9-1.66-1.64-3.42-2.71-4.96-1.52-2.19-2.59-4.96-6.36-5.62,1.8,4.13,3.34,8,5.15,11.73,10.63,21.85,19.6,44.36,27.65,67.28,4.01,11.42,9.05,22.49,13.58,33.73,1.43,3.55,2.73,7.15,4.24,11.12-3.39,1.39-6.78.32-10.31-.44.16,1.07.28,1.85.45,3-4.7,2.92-10.11,3.46-15.99,3.73.26,1.64.47,2.98.68,4.29-1.45,2.69-4.19,1.69-6.76,2.5-4.62,5.66-11.98,5.99-18.69,7.96-2.18,4.84-6.08,6.62-11.74,6.24-1.51-3.31-3.09-6.74-4.64-10.18-.79-1.74-1.37-3.6-2.33-5.24-4.86-8.33-7.74-17.51-11.36-26.37-5.55-13.58-11.12-27.15-16.66-40.74-3.85-9.45-7.63-18.94-11.5-28.38-1.13-2.76-2.63-5.36-3.72-8.13-3.66-9.28-7.29-18.58-10.78-27.93-2.37-6.35-4.49-12.8-6.81-19.48.83-2.5,1.8-5.45,2.77-8.4-.14-.05-.29-.1-.43-.15.23-.36.37-.86.7-1.05,6.65-4.06,11.04-10.45,16.44-15.8,3.93-3.9,8.11-7.54,12.04-11.43,3.47-3.43,7.36-6.65,9.98-10.67,3.35-5.13,8.13-7.96,13.13-10.79,1.83-1.03,3.61-2.16,5.67-3.4,4.29,3.47,8.44,7.05,11.71,11.58,4.5,6.22,9.36,12.12,14.86,17.52,2.39,2.34,4.07,5.4,6.08,8.13,5.43,7.36,11.39,14.39,16.16,22.15,5.67,9.21,13.66,16.3,20.48,24.44.52.62,1.29,1.04,1.98,1.58Z"/>
      <path class="cls-2" d="M.24,50.12c3.17-5.98,6.65-10.67,8.16-15.92,1.49-5.21,1-10.99,1.39-16.77,4.25-1.43,7.99-2.68,12.84-4.31-2.61-3.41-4.75-6.19-7.33-9.56C17.71,2.03,19.44.01,21.2,0c2.84-.02,5.97.76,8.46,2.14,4.55,2.51,8.55,6,13.07,8.57,17.01,9.69,35.13,16.64,54.4,20.12,25.54,4.61,47.74,17.11,70.07,29.17,20.39,11.01,40.38,22.76,60.43,34.38,10.33,5.99,20.52,12.26,30.56,18.73,3.24,2.08,6.44,3.1,10.18,3.94,8.27,1.84,16.84,3.46,24.54,9.77,0,5.12-.21,10.71.07,16.27.22,4.42,1.16,8.81,1.52,13.23.24,2.94.59,6.06-.13,8.84-2.11,8.15-2.01,16.19-.08,24.31.34,1.44.68,2.92.75,4.39.84,17.14,1.6,34.28,2.46,51.41.15,2.95.26,6.02,1.12,8.81,4.47,14.66,6.31,29.76,7.71,44.92.5,5.38,2.11,10.57.45,16.38-.9,3.14,2.15,7.41,3.31,10.82,1.01,6.52,2.17,12.72,2.86,18.98.28,2.51-.15,5.22-.84,7.68-1.3,4.65-3.02,9.18-4.64,13.98-2.39,2.03-4.89,4.15-8.08,6.86,3.06,3,5.87,5.74,9.12,8.92-1.68,3.34-4.32,5.27-8.01,6.82-5.47,2.29-10.56,5.48-15.76,8.39-9.44,5.28-18.88,10.59-28.25,16-3.83,2.21-7.42,4.83-11.23,7.06-9.66,5.67-19.38,11.24-29.09,16.83-.97.56-2.13.84-3,1.52-15.13,11.85-33.12,17.96-50.52,25.28-4.13,1.74-8.27,3.65-12.02,6.08-3.41,2.21-6.3,5.23-9.36,7.84q-7.73.32-12.67-6.51c2.94-3.47,5.95-7.04,10.05-11.88-6.72-1.6-12-2.86-17.6-4.2.73-4.42-.64-9.06-3.09-12.94-3.47-5.49-5.46-11.27-6.3-17.59-.05-.36-.35-.67-.44-1.03-1.94-7.56-3.64-15.18-5.85-22.66-3.15-10.65-6.74-21.17-10.03-31.79-1.87-6.04-3.42-12.18-5.31-18.21-2-6.37-4.64-12.57-6.27-19.03-2.55-10.09-5.68-19.96-9.08-29.79-4.95-14.31-9.56-28.75-14.23-43.16-4.47-13.78-8.69-27.65-13.29-41.39-3.04-9.08-6.7-17.94-9.83-26.99-3.06-8.86-9.34-16.65-8.99-26.66-7.5-16.27-10.61-33.86-15.13-51.02-.75-2.85-1.28-5.78-1.77-8.69-1.11-6.57-2.56-12.77-5.96-18.87-3.12-5.61-4.17-12.62-5.06-19.17-.81-5.88-.17-11.97-.17-16.75ZM137.33,146.06c.8,3.49,1.11,5.6,1.77,7.61,6.1,18.63,12.48,37.17,18.88,55.7,5.44,15.77,12.01,31.17,14.25,48.04,1.2,9.06,5.3,17.71,7.82,26.62,4.76,16.79,9.17,33.68,14.1,50.42.86,2.91,3.54,5.28,4.9,7.23,12.15.3,14.66-.61,23.58-8.05-1.34-9.82-2.72-19.69-4.01-29.58-1.06-8.09-.79-16.6-3.31-24.19-3.59-10.8-3.65-21.98-5.34-32.91-2.21-14.27-1.38-28.99-2.9-43.41-.95-9.02-.48-18.65-5.62-26.35-10.76-5.89-20.67-11.99-31.16-16.86-10.31-4.78-18.96-13.44-32.95-14.26Z"/>
      <path class="cls-2" d="M1404.97,953.94c-3.24,2.42-6.4,4.79-10.01,7.49-1.98-1.17-4.27-2.51-6.79-3.99-2.17,1.36-4.19,2.63-7.08,4.44-4.44-2.3-9.26-4.8-15.04-7.79-3.98,1.48-8.81,3.27-13.98,5.19-7.03-2.05-15.44,2.58-23.18-3.71-.19-1.58-.7-3.94-.71-6.29-.03-7.38.37-14.78.14-22.15-.38-12.55-1.25-25.09-1.59-37.65-.11-4.23.87-8.47,1.18-12.72.22-3.06.8-6.29.11-9.19-2.59-10.96-1.41-22.04-1.29-33.04.28-23.94,1.08-47.87,1.57-71.81.07-3.64-.39-7.3-.66-11.91,2.01-4.14,7.09-5.95,12-8.54,2.75-5.66,7.24-9.15,13.96-10.22,4.48-.71,8.99-2.29,13.07-4.32,7.18-3.56,14.43-6.26,22.46-7.5,7.76-1.2,15.28-3.93,23.28-6.09.68,2.47,1.3,4.7,2.13,7.7,3.52-1.36,6.57-2.54,10.08-3.9,1.32.61,2.95,1.36,4.97,2.28v17.26c13.49,18.39,20.72,39.69,31.54,59.14.24.03.56.13.85.07.29-.06.62-.21.8-.43.77-.94,1.65-1.84,2.2-2.9,16.12-31.32,32.66-62.43,47.86-94.21.37-.78.23-1.81.37-3.13-1.09-1.4-2.33-3-3.61-4.64.87-.41,1.4-.89,1.89-.85,4.55.36,9.1.84,13.65,1.22,2.13.18,4.6-.44,6.37.42,16.76,8.12,34.41,14.66,48.69,27.21.89.78,1.59,1.78,2.38,2.67-.88.81-1.55,1.42-2.45,2.25,3.55,3.71,7.11,7.42,10.53,10.99-3.2,3.22-5.83,5.88-8.89,8.97-.27-.04-1.41-.2-2.55-.37-.45.38-1.07.66-1.32,1.14-6.61,12.49-13.13,25.02-19.78,37.49-2.14,4.01-4.6,7.86-7.51,12.79.19.78.68,2.79,1.03,4.25-6.54,16.72-12.73,33.04-19.33,49.21-2.54,6.22-5.98,12.06-9.44,18.91,1.65,2.81,1.65,6.49-1.71,9.83-.44-1.2-.85-2.31-1.64-4.47-1.23,2.94-2.15,5.14-3.11,7.41,1.7.51,2.69.8,3.96,1.18-3.27,13.8-12.12,25.23-15.02,39.18-2.86,13.72-7.17,27.12-7.36,41.49-2.77.91-5.31,1.75-7.26,2.4-6.64-1.89-4.14-8.48-7.27-12.92-2.39,5.71-4.41,10.54-6.48,15.48-7.49-1.4-11.69-5.6-14.95-11.35-5.43.87-10.85,3.64-16.31-.68-.84-1.68-1.89-3.8-3.04-6.1-3.54-.3-6.87-.59-9.94-.86-6.8-4.43-6.77-11.68-8.23-18.08-2.93-12.81-6.32-25.47-10.79-37.82-.57-1.58-1.87-2.91-3.33-5.11-5.12,22.69.3,45.18-5.38,66.68Z"/>
      <path class="cls-2" d="M1046.01,747.42c1.15-2.39,1.93-3.98,3.05-6.31,5.35.93,10.7,1.85,16.11,2.79,2.51,2.3,4.97,4.55,7.67,7.03,1.21-.76,2.29-1.29,3.19-2.03,3.12-2.54,6.27-2.38,9.2.09,5.94,5.03,11.93,9.91,18.56,14.11,2.74,1.74,3.94,5.92,5.13,9.58,1.98,1.39,3.97,2.78,5.33,3.73,1.7,4.26,3.13,7.85,4.82,12.11-.28.38-.8,1.56-1.69,2.26-5.9,4.58-8.85,10.73-10.18,17.93-1.23,6.65-4.64,12.49-7.5,18.5-4.22,8.85-7.86,17.83-11.05,27.16-6.42,18.78-11.67,38.03-20.21,56.06-.38.8-.4,1.76-.69,3.12,2.3,2.88,4.73,5.94,6.89,8.65,3.54,1.24,5.78,0,7.88-2.16,4.29-4.41,8.51-8.92,13.09-13.02,7.76-6.95,15.6-13.82,23.74-20.31,4.16-3.32,6.59-7.42,7.19-12.35,1.59-13.04,5.53-25.61,6.32-38.88.69-11.52,1.9-23.2,3.68-34.58,3.45-22,3.44-43.99,3.19-66.07-.04-3.92-.33-7.83-.51-11.81,4.67-3.52,10.32-3.29,16.35-3.73-1.49-1.48-2.6-2.58-4.47-4.44,1.9-.46,3.11-1.02,4.32-1.02,8.92,0,17.86.37,26.77.08,3.75-.12,7.46-1.56,11.55-4.04,4.57,2.83,9.14,5.65,13.72,8.48,2.5,2.19,6.61-.74,8.95,3.23-1.42,3.53-2.92,7.11-4.27,10.75-.29.79-.04,1.79-.04,3.22,2.03,1.05,4.11,2.13,6.53,3.38-1.52,1.87-3.01,3.7-5.33,6.56-.47,7.81-.54,16.69-1.65,25.44-1.53,12.09-3.85,24.09-5.83,36.12-1.04,6.31-2.41,12.58-3,18.93-.41,4.36-.96,8.49-3.14,12.35-.56,1-.54,2.37-.64,3.58-.67,8.23-.95,16.51-2.03,24.68-1.48,11.16-3.23,22.31-5.52,33.33-1.58,7.59-2.18,15.12-1.77,22.59,1.87,3.07,3.62,5.93,5.54,9.09-10.05,9.14-19.95,18.15-29.84,27.15-6.31,5.75-12.62,11.5-18.94,17.25-2.68,2.44-4.92,5.19-8.79,6.4-2.24.7-4.01,3.58-5.5,5.81-2.02,3.03-3.57,6.38-5.4,9.71-3.31.28-6.34.53-9.37.78-10.35,5.31-16.51,17.57-29.91,18.2-1.9-1.67-3.74-3.27-5.88-5.15-2.45-.11-5.19-.23-7.93-.36-.57-.2-1.2-.32-1.71-.63-8.1-4.95-16-10.25-24.32-14.78-7.08-3.85-13.53-8.33-19.37-13.85-1.98-1.87-4.4-3.27-6.63-4.87-2.21-1.6-4.49-3.12-6.64-4.79-7.85-6.09-14.93-13.38-25.68-15.69-1.28-3.68-2.56-7.37-4.03-11.59-3.96-.25-8.17-.51-12.78-.8-1.18-3.67-1.24-7.19.15-10.74,6.68-17.11,13.66-34.12,19.95-51.37,3.44-9.45,6.35-19.19,8.38-29.04,4.04-19.51,9.34-38.63,15.7-57.5,4.98-14.78,9.61-29.68,14.37-44.53,1.37-4.28,3.87-6.16,8.19-5.6,2.08.27,4.08,1.08,6.76,1.83Z"/>
      <path class="cls-2" d="M1577.76,985.38c-.15,4.12-1.21,7.85-4.68,10.9h-8.65c-3.29-3.41-.22-6.53-.07-9.67-.71-1.39-1.4-2.74-2.25-4.41h-7.59c-.27,1.14-.58,2.26-.79,3.39-.51,2.71,3.57,5.76-1.05,8.47-3.5-2.24-5.41-5.03-4.04-9.69.83-2.8,1-5.8,1.46-8.64-4.62-2.65-8.52-4.89-13.15-7.55-1.24,3.27-2.25,5.95-3.33,8.78-4.37,2.9-6.6-.15-8.86-2.96.38-3.44.73-6.62,1.29-11.68-3.32,3.65-5.29,5.83-7.73,8.52-2.55-2.32-4.97-4.52-7.44-6.77.75-4.27,1.31-8.16,2.12-12.01,3.16-14.91,5.34-30.11,11.43-44.22,6.4-14.81,12.83-29.65,20.04-44.07,6.84-13.69,14.32-27.02,22.94-39.82,7.99-11.87,13.72-25.27,20.38-38.03,3.81-7.29,7.5-14.65,11.54-22.55-.19-.65-.62-2.09-1.05-3.54,3.23-5.45,7.72-9.12,13.98-11.51-1.4-.15-2.8-.3-4.49-.49.08-.63-.12-1.82.35-2.23,2.99-2.59,6.13-5,9.71-7.85h14.87c-1.29-2.15-2.15-3.6-3.35-5.61,9.16-4.81,18.23-7.52,28.69-5.7,4.04.71,9.24,2.58,12.76-2.19,1.38,1.45,2.77,2.92,4.5,4.74,1.72-1.18,3.17-2.18,4.66-3.2,6.44,3.06,10.35,10.49,19.01,10.73-2.28,5.89-1.66,11.34,1.65,16.52,1.48,2.32,2.41,5.02,3.99,7.26,5.84,8.28,9.46,17.64,13.02,26.97,2.22,5.81,4.32,11.47,9.12,15.69.68.6,1.45,1.3,1.75,2.11,3.42,9.22,10.18,15.94,17.31,22.35-.29,2.81-.54,5.2-.94,8.95,3.88,6.77,8.41,14.7,13.55,23.67-3.53-1.46-6.21-2.56-9.37-3.87-2.07,1.92-4.26,3.96-6.46,6,.3.19.59.38.89.57-1.81,3.79-3.75,7.53-5.4,11.39-3.01,7.01-5.96,14.05-8.72,21.16-2.09,5.39-3.64,11-5.81,16.36-2.76,6.84-4.84,13.78-5.53,21.16-.28,3.01-1.23,5.94-1.78,8.93-2.21,11.93-2.29,24.27-6.96,35.75-.66,1.62-.14,3.68-.52,5.46-.52,2.47-1.37,4.87-2.66,9.32-2.1-8.79-.08-14.97,1.7-21.02,1.44-4.89.96-9.58-.22-14.59-.72,1.6-2.14,3.26-2.03,4.8.65,8.87-3.38,16.63-5.29,24.89-.8,3.48-.47,7.22-.71,11.93,1.91-2.19,2.98-3.42,4.74-5.44,2.23,11.01-.27,20.11-5.9,30.8-.43-4.95-.68-7.88-.95-11.07-3.27,8.27-5.15,19.54-4.21,26.34.68-2.74,1.17-4.72,1.66-6.7.88.18,1.87.18,1.93.41,2.44,9.92-.1,19.14-3.35,28.24-9.33-1.08-14.56-6.69-19.51-13.49.15,1.94.31,3.88.46,5.82q-7.59-2.57-14.67-15.45c.69-.98,1.39-1.98,2.99-4.26-1.23-1.15-2.65-2.48-3.84-3.6-4.9,2.83-2.65,6.97-4.55,10.46-.82.41-2.17,1.08-2.64,1.31-7.96-3.45-15.23-6.6-23.04-9.98.08-1.31.17-3,.3-5.18-1.87-1.56-3.96-3.31-6.63-5.54,8.77-8.88,8.11-21.09,10.77-32.27,1.69-7.12,3.22-14.28,5.31-21.29,1.69-5.68,2.7-11.3,1.99-16.87-3.28-2.51-6.31-4.82-7.81-5.97-7.04-2.3-12.43-4.05-18.99-6.19-3.65,2.29-7.84-2.16-12.56-2.32-9.95,8.23-15.07,23.78-12.58,40.09-2-1.95-3.25-3.18-4.83-4.73-2.06,4.83-4.05,9.49-6.05,14.16-.04-2.77.84-5.67-1.02-9.07-2.18,4.86-4.07,8.86-4.31,15.06,2.55-2.87,4.04-4.55,5.53-6.22ZM1654.98,815.88c-1.09-.06-2.17-.13-3.26-.19,2.3,5.57-.97,8.89-2.92,12.75-4.28,8.45-8.68,16.85-12.8,25.37-3.26,6.75-6.18,13.67-9.42,20.89.88.77,1.86,2.16,3.18,2.69,8.52,3.44,17.06,6.83,25.72,9.89,1.71.6,3.95-.32,6.12-.55,3.32-13.59,4.6-27.06,10.01-39.49,1.76-4.03-.24-7.84-2.51-11.24-3.22-4.83-6.54-9.6-9.85-14.37-1.36-1.96-2.84-3.84-4.27-5.75ZM1612.85,922.2c.93,6.08,4.79,7.04,7.62,9.17,3.04,2.29,5.64,5.16,8.66,7.99,2.24-2,4.16-3.71,7.47-6.66-2.03-1.02-3.1-1.62-4.22-2.1-6.07-2.63-12.16-5.23-19.53-8.39ZM1676.6,978.18c2.36-6.02,4.3-10.98,6.44-16.46-.82-1-1.82-2.22-3.65-4.45-1.79,6.34-3.22,11.42-4.76,16.91.33.66.86,1.74,1.97,4ZM1683.61,944.77c5.54-5.05,7.32-11.92,3.6-17.35.93,6.88-4.19,11.06-3.6,17.35ZM1673.07,993.4v-11.84c-3.86,4.15-3.75,7.19,0,11.84ZM1688.62,984.83q-3.42,3.54-1.61,8.94c.75-4.15,1.18-6.54,1.61-8.94ZM1678.28,942.38c-1.92,3.54-3.23,5.97-4.55,8.4,3.79-1.06,6.24-2.86,4.55-8.4ZM1667.67,982.55c-3.81,2.27-3.09,4.2,0,6.44v-6.44Z"/>
      <path class="cls-2" d="M1003.36,640.45c-3.95,1.17-6.67-.94-9.59-3.26-1.24.36-2.61.76-3.87,1.13-7.26-3.44-12.47-9.07-17.08-15.14-2.26-2.98-4.89-5.31-7.81-7.4-7.58-5.42-14.03-11.77-17.67-20.58-.56-1.35-1.5-2.53-2.55-4.26,2.03-.77,3.92-1.49,5.51-2.09-.22-3.24-.6-6.38-.61-9.52-.05-12.61.04-25.23.03-37.84,0-1.46-.24-2.92-.35-4.11-2.59-2.71-7.54-3.71-10.26-3.81-.67,4.9-1.51,11.97-2.1,16.35-1.17,8.59-.08,16.57-1.83,25.07-.81,3.93-.93,7.99-1.42,12.52-.87.42-2.4.8-3.36,1.75-.98.96-1.4,2.49-2.27,4.16-2.46-2.12-4.78-4.12-7.23-6.24-1,1.73-1.84,3.19-2.88,4.99-4-2.29-7.84-4.49-12.48-7.15-3.09,1.54-7.08,1-11.06-1.13-1.85-.99-4.04-1.34-6.02-2.12-3.62-1.42-4.88-3.31-3.77-6.92,1.18-3.84.36-8.19,2.98-11.64.23-.31.32-.83.28-1.23-1-10.38,3.14-20.06,4.31-30.17,1.18-10.3,2.43-20.62,3.69-30.92.79-6.5,2.42-12.89,3.53-19.35.65-3.76.87-7.59,1.53-11.34,1.58-9.09.96-18.27,1.36-27.41.15-3.37.89-6.72,1.42-10.07.67-4.17,1.59-8.32,2.01-12.52.18-1.78-.65-3.67-1.04-5.62,6.87-7.35,14.2-14.06,23.11-19.99,5.64.49,11.95,2.59,18.22,0,1.8.87,3.52,1.7,5.54,2.68,0,.62-.25,1.5.04,2.12,1.64,3.44,3.21,6.94,5.22,10.16.79,1.26,2.6,1.97,4.05,2.72,1.6.83,3.33,1.41,5.29,2.22-1.09,1.67-1.81,2.78-2.65,4.06,3.44,3.22,6.78,6.12,9.85,9.28,3.26,3.35,6.04,7.19,9.44,10.37,5.7,5.33,10.2,12.04,17.49,15.6.74.36,1.34,1.05,1.97,1.62,2.81,2.55,5.14,5.7,9.15,6.68.96.23,1.73,1.21,2.37,1.69,0,4.88.02,9.14-.02,13.4,0,.84.02,1.81-.36,2.51-5.23,9.74-4.02,20.73-5.69,31.1-1.92,11.95-1.09,24.25-1.83,36.34-.73,11.93-.37,23.89-1.38,35.74-.59,7.02-.89,13.91-.38,20.89.09,1.21.17,2.52.69,3.57,1.81,3.67,1.72,7.49.79,11.23-.75,3-.71,5.72.06,8.74,1.19,4.62,1.26,9.3-2.39,13.13ZM945.57,471.21c-.72,9.35-5.62,17.64-4.65,26.86-3.12,2.41-1.05,5.78-1.68,8.9,1.47,1.09,9.39,2.05,10.52,2.88,3.07-1.27,2.55-3.63,2.51-5.68-.1-5.15.14-10.23,2.7-15.1-2.13-4.14-1.2-8.22.42-12.28.39-.97.65-2.02.76-3.06.05-.55-.36-1.15-.56-1.73-1.75-.4-7.72-.25-10.01-.78ZM954.83,539.73c.58,4.51-1.37,8.61,1.92,12.57.8-1.05,1.38-1.81,1.94-2.53-1-1.55-1.79-2.78-2.28-3.55-.64-2.37,2.5-4.55-1.58-6.49ZM954.07,569.88c2.39-5.07,2.4-9.52,1.13-14.12-.38,4.78-.75,9.45-1.13,14.12ZM977,443.16c.3-3.9-3.03-4.3-5.15-6.07-.48.48-.77.76-1.35,1.34,1.78,2.2,3.07,4.58,6.5,4.73Z"/>
      <path class="cls-2" d="M489.23,55.27c3.02-6.9,9.27-5.9,15.33-6.66,1.25-3.38,2.48-6.72,3.75-10.18,1.08-.06,2.32-.49,3.24-.12,9.74,3.81,19.64,5.77,30.18,7.06,14.61,1.78,28.79,7.26,43.08,11.44,11.04,3.23,21.81,7.51,32.96,10.25,21.48,5.28,41.95,13.39,62.21,21.87,9.04,3.78,16.66,10.97,25.16,16.78-.46,4.11-.76,7.38-1.22,10.64-.21,1.46-1.2,2.92-1.05,4.3,1.47,13.7-1.36,27.36-.16,41.04.29,3.31,1.01,6.59,1.43,9.89.33,2.58,1.1,5.29.64,7.75-3.22,17.11.26,33.88,2.15,50.74.17,1.48.12,2.99.16,4.49.13,4.87-.37,9.86.5,14.59,2.06,11.24,4.77,22.36,7.08,32.92,5.03,3.13,12-1.93,15.63,5.97-3.11,1.15-5.7,2.1-8.95,3.3-6.8,15.33-17.41,28.56-29.95,40.45-9.52,9.03-18.73,18.4-27.82,27.87-5.93,6.17-11.39,12.8-17.1,19.19-1.25,1.4-2.41,3.28-4.01,3.88-12.57,4.67-19.3,16.14-28.7,24.46-4.54,4.02-8.92,7.54-14.87,9.55-5.51,1.87-10.42,5.54-16.5,8.93-1.86-3.17-3.45-5.87-5.44-9.26-6.18-2.74-13.26-4.59-20.86-4.91-5.17-.22-10.39-.98-15.45-2.09-8.46-1.85-9.45-2.79-15.78-11.38,2.84-10.87,3.51-21.88.41-32.92-.2-.72-.31-1.47-.36-2.21-.79-12.64-1.38-25.29-2.39-37.91-1.18-14.8-1.55-29.68-4.17-44.35-.45-2.55-.14-5.24-.28-7.85-.78-14.51-1.05-29.08-2.53-43.52-1.51-14.72-5.12-29.26-6.15-43.99-1.02-14.56-4.97-28.56-6.58-42.81-2.06-18.24-7.41-35.55-10.95-53.34-2.19-11-4.28-21.96-2.64-33.87ZM621.57,249.95c0-2.83.27-6.2-.07-9.5-.38-3.66-1.73-7.23-1.94-10.88-.95-16.31-1.69-32.63-2.4-48.95-.19-4.44-.03-8.9-.03-12.98-5.13-5.66-9.99-9.76-18.56-6.38.86,4.61.99,9.18,2.65,13.12,1.8,4.3,2.44,8.49,2.42,13.01-.03,6.35-.68,12.84.4,19.01,2.19,12.42,4.4,24.79,4.08,37.46-.11,4.57.36,8.92,4.16,12.1q4.93-1.4,9.29-6.01Z"/>
      <path class="cls-2" d="M949.36,124.39c2.45,5.56,4.22,10.98,1.49,17.2-1.12,2.55-.44,5.92-.44,8.91.03,40.89,0,81.78.2,122.67.03,7.24-1.04,13.97-4.72,20.85-5.04-2.09-9.67-4.02-15.81-6.56,2.08,6.81,8.65,7.68,10.56,13.37-12.45,4.11-17.32,17.12-28.04,23.25-.34,3.65-.62,6.58-.95,10.13-2.9.46-5.76.92-8.45,1.36-4.7,4.91-9.32,9.74-12.92,13.5-10.44,2.29-19.55,4.03-28.51,6.36-4.94,1.29-9.59,3.67-14.43,5.38-7.23,2.56-13.52,1.12-20.05-3.21-16.19-10.74-33.07-20.43-49.23-31.22-9.9-6.61-18.93-14.53-28.44-21.75-9.48-7.2-11.95-17.49-13.33-28.51-1.84-14.72-4.1-29.39-6.17-44.09-.16-1.11-.28-2.23-.33-3.35-.82-19.02-1.6-38.05-2.43-57.08-.67-15.28-1.28-30.56-2.18-45.82-.15-2.48-1.68-4.87-2.49-7.33-.91-2.75-1.72-5.54-2.62-8.47,28.44-26.21,59.13-48.47,91.18-71.96,3.46-1.11,8.41.15,13.46,1.89,23.37,8.04,45.34,19.23,67.59,29.77,4.04,1.91,7.75,4.51,11.85,6.92,2.36,5.14,7.63,9.49,4.36,14.84,4.81,5.51,9,10.19,13.06,14.97,2.89,3.4,5.62,6.52,10.18,8.33,6.17,2.43,11.75,6.36,17.59,9.65ZM864.39,249.09v-124c-9.13-5.05-15.04-5.71-21.09-.79-8.91,7.25-17.19,15.28-25.52,22.78-1.61,38.57.91,76.31,7.11,114,6.05,3.77,11.68,7.28,17.5,10.9,9.55-5.66,13.22-16.41,22.01-22.9Z"/>
      <path class="cls-2" d="M417.94,199.58c2.25,4.69,3.67,7.68,4.8,10.04,5.99,3.56,10.97,1.19,15.71-.76,5.93-2.44,11.51-2.15,17.45-.12,3.88,1.33,6.48,3.46,8.41,8.5-1.87,2.99-4.15,6.62-7.14,11.41-1.04,5.02,7.08,12.32-1.74,18.16,1.89,2.65,3.74,5.25,5.42,7.62-7.83,5.52-15.36,10.83-24.47,17.26-2.39.14-6.83.41-11.19.66-2.75,11.12-1.52,13.42,9.03,15.73,4.7,1.03,9.55,1.79,14.34,1.87,12.75.23,25.51.08,38.26-.03,4.59-.04,9.04.07,12.86,4.49v8.66c-3.22,2.02-6.58,4.12-10.35,6.49,3.5,2.68,6.7,5.14,9.33,7.15.29,6.12.54,11.45.83,17.72-3.77,1.26-7.91,2.65-12.2,4.09,4.13,3.57,8.23,7.11,13.77,11.89-5.67.35-9.31.58-14.88.92,5.15,2.93,8.76,4.98,13.21,7.51-2.86.77-5.07,1.37-7.83,2.12.56,2.79,1.1,5.52,1.62,8.16-.88,1.2-1.37,2.33-2.22,2.95-6.67,4.86-14.25,4.14-21.59,2.66-6.73-1.35-13.23-1.82-19.87.13-1.75.52-3.74.76-5.54.53-8.84-1.13-17.65-3.47-26.48-3.48-12.19-.02-23.91-4.63-36.62-1.27-8.73,2.31-18.56.44-28.55.44-1.76-4.73-4.44-9.1-4.92-13.71-1.7-16.26-5.49-32.28-5.05-48.8.15-5.78-1.56-11.62-3.28-17.25.35-2.2,1.12-4.42.97-6.58-.69-9.65-.93-19.41-2.67-28.89-2.17-11.74-3.93-23.41-4.07-35.38-.07-5.89-1.29-11.78-2.14-17.65-1.32-9.16-2.83-18.29-4.12-27.46-.36-2.58-.23-5.24-.3-7.86-.22-8.55.88-17.19-2.08-25.56-.58-1.65-.08-3.68-.08-6.21,3.95-.53,7.54-1.01,11.94-1.59.6-2,1.31-4.35,2.32-7.71,1.97-.76,4.72-2.8,7.39-2.7,14.81.51,28.14-7.26,42.81-7.36,2.08-.01,4.16-1.54,6.22-2.4,17.56-7.31,35.73-12.68,54.25-16.9,2.83-.65,5.87-.41,8.43-.55,5.67,4.21,8.68,8.99,8.1,16.14-2,1.12-4.11,2.29-6.95,3.88,3.24,3.83,6.07,7.18,9.28,10.97-.43,2.17-.92,4.64-1.56,7.82,1.02,1.59,2.38,3.72,3.98,6.23-2.31,1.99-4.44,3.82-7.09,6.1,2.26,2.94,4.25,5.53,6.75,8.79-.22,1.11-.55,2.84-.91,4.67,1.59,1.94,3.22,3.94,5.44,6.65-3.82.49-6.91.88-10.24,1.31,2.16,3.8,3.99,7,6.26,11-2.07,1.26-4.19,3.59-5.55,3.2-7.57-2.13-13.08,3.59-19.78,4.65-6.56,1.04-13.01,3.21-19.26,5.53-2.88,1.07-5.19,3.68-8.44,6.09Z"/>
      <path class="cls-2" d="M1256.72,946.45c-6.4.44-9.55-6.94-16.48-4.78.81,1.41,1.47,2.56,2.15,3.75-.67,1.82-5.21,1.91-15.69.33-3.33-2.93-.83-7.1-2.36-10.88-1.44-1.75-3.17-3.87-4.56-5.56,1.76-13.86,3.32-27.18,5.2-40.45,1.45-10.26,3.34-20.47,4.95-30.71.28-1.81.15-3.68.23-5.53.44-10.72.41-21.4,1.64-32.15,1.75-15.2,1.62-30.61,2.43-45.93.31-5.79,1.52-11.58,1.36-17.34-.2-7.26-1.37-14.49-2.18-22.27,4.53-3.84,10.02-7.71,17.53-6.24,1.2-1.6,2.27-3.04,3.71-4.95,8.83-.34,17.05,1.79,24.16,9.34,1.21-3.38,2.05-5.74,2.96-8.31,8.42,2.75,15.51,8.01,24.48,6.9,2.15,3.6,4.33,7.27,6.58,11.05-1.63,10.9-3.48,22.01-4.91,33.18-2.81,21.92-2.97,44-4.21,66.02-.98,17.51-1.08,34.97-1.39,52.46-.12,6.69-1.45,13.35-1.73,20.05-.15,3.57.77,7.19,1.37,12.14-1.7,5.02-3.84,11.38-6.04,17.88-1.76-.36-3.21-.66-5.32-1.1-.89,1.92-1.84,3.98-3.32,7.19-1.25-2.5-2.1-4.19-3.38-6.75-6.98-1.83-14.59-3.82-22.96-6.02-1.3,2.66-2.71,5.54-4.24,8.67Z"/>
      <path class="cls-1" d="M1040.33,745.98c4.36.66,6.3,3.66,7.53,8.08-5.15-.44-4.8-5.82-7.53-8.08Z"/>
    </g>
  </g>
</svg>