<?xml version="1.0" encoding="UTF-8"?>
<svg id="Layer_2" data-name="Layer 2" xmlns="http://www.w3.org/2000/svg" viewBox="0 0 219.01 348.06">
  <defs>
    <style>
      .cls-1 {
        fill: #ffc120;
      }

      .cls-2 {
        fill: #fff;
      }

      .cls-3 {
        fill: #302f2f;
      }
    </style>
  </defs>
  <g id="Camada_1" data-name="Camada 1">
    <g>
      <path class="cls-1" d="M121.23,337.3l2.7-28.57,5.77-17.56,5.1-11.59,15.85-21.58,8.91-16.91,3.19-6.58s14.9-20.33,15.54-21.58,8.93-20.37,8.93-20.37l16.81-22.83,6.69-14.1.05-7.54,8.23-9.06s-4.31-12.91-7.14-13.56c-2.82-.65-6.6.59-7.54-.05-.94-.63-12.94,8.09-12.94,8.09l-11.71,12.81-5.43,13.16-12.05,16.26-6,4.05-4.01-11.34-3.72-8.19,1.05-16.65s-.31-.63-.3-2.52c.01-1.89.16-23.88.16-23.88l4.93-32.96s-.5-19.49-.48-22c.02-2.51,2.03-21.67,2.03-21.67l-.87-11-9.38-7.92-8.81,1.83-6.4,16.93-3.25,16.63s-.35,5.03-.36,7.23c-.01,2.2.57,8.8-.06,9.74s-3.82,6.89-3.84,10.03c-.02,3.14-2.31,16.64-2.65,21.04-.34,4.4-1.95,9.1-1.95,9.1l-2.83-.02s-1.54-5.04.05-6.91c1.58-1.88,3.22-11.29,2.91-12.24s-2.11-13.21-2.11-14.16c0-.94,1.35-14.45,1.35-14.45l-2.47-17.3-2.53-34.58.06-9.11-8.76-5.4-13.85,3.37-4.19,16.31,1.69,17.29s.17,10.69-.09,13.2c-.25,2.51-3.16,14.43-3.16,14.43,0,0,.92,3.46-.04,5.66s-.13,19.17-.13,19.17l-1.99,15.39-2.86,4.69-2.13-10.07-2.78-6.93.06-9.11-7.43-16.39-1.78-15.41-3.69-11.65-2.73-14.16.03-4.09-12.22-5.74-9.78,6.22-1.95,10.36s4.24,24.23,4.54,27.06c.3,2.83,2.44,10.7,2.44,11.64s.49,20.74.49,20.74c0,0,2.47,6.62,2.78,7.56s3.38,11.65,3.38,11.65l.59,5.66.56,10.06-2.54,4.07-6.27-2.56-6.49-16.07-4.96-10.72-3.4-8.82-1.51-9.44-3.69-11.97-5.31-5.38-3.43-3.48L.14,66.88l-.05,7.86-.09,13.2,5.86,16.38s1.53,5.98,1.52,7.24c0,1.26,5.52,20.15,5.52,20.15,0,0,4.06,3.8,4.37,4.74.31.94,4.96,10.72,4.96,10.72l2.44,11.01,4.21,28.31,3.09,8.51-.44,18.85,10.49,29.92,8.96,22.68,2.45,10.07s1.15,16.03.21,16.03-8.44,41.11-8.44,41.11l.91,4.72.6,5.03s43.33,5.94,47.11,4.4c3.78-1.55,16.06-4.92,17-4.92.94,0,10.41-5.59,10.41-5.59Z"/>
      <g>
        <polygon class="cls-2" points="128.38 185.6 94.37 179.21 64.46 194.73 50.65 210.52 88.08 218.35 119.16 211.01 145.85 190.97 128.38 185.6"/>
        <polygon class="cls-3" points="101.05 185.49 110.99 196.6 104.38 208.79 90.96 205.89 89.65 196.76 94.04 188.1 101.05 185.49"/>
        <polygon class="cls-2" points="97.4 191.3 100.23 194.25 98.29 197.54 94.44 196.8 94.09 194.35 95.38 192.02 97.4 191.3"/>
      </g>
    </g>
  </g>
</svg>